# xmcd CD database file
#
# Track frame offsets:
#	150
#	17005
#	28175
#	39602
#	51032
#	62330
#	63852
#	75487
#	87355
#	99322
#	110637
#	120467
#	122705
#	145325
#	157497
#	169177
#	179880
#	196785
#	211072
#	223057
#	234427
#	246937
#	258017
#	272245
#	282030
#	308550
#
# Disc length: 4440 seconds
#
# Revision: 2
# Processed by: cddbd v1.5.1PL0 Copyright (c) Steve Scherf et al.
# Submitted via: CDex 1.51
#
DISCID=7011561a
DTITLE=椎名ＫＡＹ太・武藤良明 - 『満月をさがして』オリジナルサウンドトラック
DYEAR=2002
DGENRE=アニメ
TTITLE0=THE☆SCANTY/I▽U
TTITLE1=森のおともだち”
TTITLE2=―再会―
TTITLE3=死神マーチ
TTITLE4=ばれちゃった!?
TTITLE5=われら泣く子もだます ねぎラーメン!
TTITLE6=New Future 〜Full Moon Instrumental Version〜
TTITLE7=めろこ参上!
TTITLE8=ドキドキ 初仕事
TTITLE9=もう会えないの?
TTITLE10=約束
TTITLE11=お願い!タクト!
TTITLE12=Changin'My Life/New Future
TTITLE13=霊界からの指令
TTITLE14=トラブル発生!
TTITLE15=それでも歌いたい
TTITLE16=Myself 〜Final Instrumental Version〜
TTITLE17=夢のカケラ
TTITLE18=せまりくる影
TTITLE19=タクトのテーマ
TTITLE20=うまくいかないなぁ
TTITLE21=めろめろ、ちぇーんじ!
TTITLE22=空を見上げて
TTITLE23=小さなわたし
TTITLE24=Changin'My Life/Myself (Short Edit)
TTITLE25=data
EXTD=YEAR: 2002
EXTT0=
EXTT1=
EXTT2=
EXTT3=
EXTT4=
EXTT5=
EXTT6=
EXTT7=
EXTT8=
EXTT9=
EXTT10=
EXTT11=
EXTT12=
EXTT13=
EXTT14=
EXTT15=
EXTT16=
EXTT17=
EXTT18=
EXTT19=
EXTT20=
EXTT21=
EXTT22=
EXTT23=
EXTT24=
EXTT25=
PLAYORDER=
